<?xml version="1.0" standalone="no"?><!DOCTYPE svg PUBLIC "-//W3C//DTD SVG 1.1//EN" "http://www.w3.org/Graphics/SVG/1.1/DTD/svg11.dtd"><svg t="1573177233424" class="icon" viewBox="0 0 1024 1024" version="1.1" xmlns="http://www.w3.org/2000/svg" p-id="10542" xmlns:xlink="http://www.w3.org/1999/xlink" width="260" height="260"><defs><style type="text/css"></style></defs><path d="M1009.664 772.224c1.248 30.176-5.888 61.024-22.944 88.32l-43.776 70.144c-14.976 24-36.064 43.04-60.96 55.04-12.608 6.08-25.728 9.984-38.976 12.192 0.32 0.256 0.544 0.48 0.896 0.736-30.944 10.016-75.2 12.704-117.344 10.72-13.792 0.576-28.032 0.928-43.232 0.672-174.048-2.656-348.416-79.232-478.336-217.44-114.656-121.92-182.24-275.584-190.24-432.672-1.824-35.904 0.256-63.04-0.384-96.96-0.064-0.992 0-19.744 0-20.768 0-17.376 7.328-29.056 19.04-35.552 20.096-58.176 54.528-97.344 76.576-117.952 4.352-7.872 10.752-14.336 18.752-18.112l-0.096-0.448 54.112-32.288c26.464-15.744 56.672-23.904 87.424-23.616 0.256 0 0.48 0.032 0.736 0.064s0.512-0.064 0.8-0.064c56.192 0.544 107.136 28.928 136.224 75.968l33.504 54.208 44.32 70.528c16.256 25.888 27.328 61.12 26.624 89.536-0.352 14.336-3.52 26.976-8.32 38.56-10.624 38.24-35.168 72.928-72.16 95.36l-73.312 44.384c5.92 27.872 17.888 55.84 34.624 82.368 10.464 13.024 22.336 25.952 36.704 40.032 44.96 44.192 101.376 70.4 156.352 73.632l29.6-36.864 12.832-20.544c12.512-20.064 29.504-36.384 49.248-48.32 7.776-8.48 14.88-15.648 21.184-19.584 15.552-9.696 23.008-21.504 41.504-20.768 26.208 1.088 64.192 19.36 88.96 35.616l114.368 75.136c41.088 24 64.256 49.888 66.464 96.768 0.448 9.536 0.192 20.512-0.736 31.904z" p-id="10543"></path></svg>