<?xml version="1.0" standalone="no"?><!DOCTYPE svg PUBLIC "-//W3C//DTD SVG 1.1//EN" "http://www.w3.org/Graphics/SVG/1.1/DTD/svg11.dtd"><svg class="icon" width="200px" height="200.00px" viewBox="0 0 1024 1024" version="1.1" xmlns="http://www.w3.org/2000/svg"><path fill="#FFCC66" d="M768 326.4c-70.4 0-134.4-57.6-134.4-134.4V89.6c0-6.4-6.4-19.2-19.2-19.2h-384c-51.2 0-89.6 38.4-89.6 89.6v697.6c0 51.2 38.4 89.6 89.6 89.6h556.8c51.2 0 89.6-38.4 89.6-89.6V339.2c0-6.4-6.4-19.2-19.2-19.2H768z m-19.2 467.2H275.2c-6.4 0-19.2-6.4-19.2-19.2v-12.8c0-6.4 6.4-19.2 19.2-19.2h467.2c6.4 0 19.2 6.4 19.2 19.2v12.8c0 12.8-6.4 19.2-12.8 19.2z m0-153.6H275.2c-6.4 0-19.2-6.4-19.2-19.2v-12.8c0-6.4 6.4-19.2 19.2-19.2h467.2c6.4 0 19.2 6.4 19.2 19.2v12.8c0 12.8-6.4 19.2-12.8 19.2z m0-153.6H275.2c-6.4 0-19.2-6.4-19.2-19.2v-6.4c0-6.4 6.4-19.2 19.2-19.2h467.2c6.4 0 19.2 6.4 19.2 19.2v12.8c0 6.4-6.4 12.8-12.8 12.8z m12.8 0M678.4 128v57.6c0 51.2 38.4 89.6 89.6 89.6h57.6c19.2 0 32-25.6 12.8-38.4l-128-128c-6.4-12.8-32 0-32 19.2z m0-51.2" /></svg>