<?xml version="1.0" standalone="no"?><!DOCTYPE svg PUBLIC "-//W3C//DTD SVG 1.1//EN" "http://www.w3.org/Graphics/SVG/1.1/DTD/svg11.dtd"><svg t="1572513315275" class="icon" viewBox="0 0 1024 1024" version="1.1" xmlns="http://www.w3.org/2000/svg" p-id="4674" xmlns:xlink="http://www.w3.org/1999/xlink" width="200" height="200"><defs><style type="text/css"></style></defs><path d="M513.328846 0.408876L85.790885 225.465746l-4.059552 795.234043 859.339912 2.891335 1.0806-793.510923L513.328846 0.408876z m114.923279 958.200216l-225.611774-0.75934V742.985568a112.732873 112.732873 0 0 1 112.791284-112.732873 112.791284 112.791284 0 0 1 112.82049 112.732873v215.623524z m248.976099 0.759341l-181.482402-0.438081v-243.602305c0-100.437397-52.248474-152.62746-152.715076-152.627459h-55.169015c-100.495807 0-152.715076 52.190063-152.715077 152.627459v242.200445l-188.958986-0.438081 3.300211-678.500028 363.490502-198.80121 365.126006 202.802351-0.876163 676.776909z m-339.074782-625.404598a80.606925 80.606925 0 1 0 161.155439 0 80.606925 80.606925 0 1 0-161.155439 0z" p-id="4675"></path></svg>