<?xml version="1.0" standalone="no"?><!DOCTYPE svg PUBLIC "-//W3C//DTD SVG 1.1//EN" "http://www.w3.org/Graphics/SVG/1.1/DTD/svg11.dtd"><svg t="1573178625619" class="icon" viewBox="0 0 1024 1024" version="1.1" xmlns="http://www.w3.org/2000/svg" p-id="16019" xmlns:xlink="http://www.w3.org/1999/xlink" width="260" height="260"><defs><style type="text/css"></style></defs><path d="M929.088 740.48c-94.848-19.456-202.112-79.296-202.176-79.296-46.72-31.232-83.52-46.4-112.512-46.4-24.32 0-44.672 11.136-55.488 30.4-14.144 24.832-9.536 57.92 2.24 77.824 5.376 9.088 15.872 24.768 27.136 40.896-234.112-14.72-274.752-68.224-321.152-129.408a477.056 477.056 0 0 0-49.92-58.56c-38.016-36.672-68.736-53.824-97.152-53.824a62.528 62.528 0 0 0-53.312 29.312c-25.728 39.104-17.152 109.76-7.808 131.264 105.6 243.84 360.512 286.528 371.2 288.128a26.88 26.88 0 0 0 5.312 0.576h486.656c19.008 0 34.304-15.36 34.304-34.304v-162.88a34.304 34.304 0 0 0-27.328-33.728z" p-id="16020"></path><path d="M500.928 32.512a402.176 402.176 0 0 0-402.24 402.176c0 7.744 0.768 15.296 1.216 22.976 5.76-1.664 11.712-2.752 18.048-2.752 28.288 0 59.072 17.088 97.088 53.76 20.544 19.968 33.664 41.28 50.048 58.624 51.2 54.464 56.704 118.144 241.984 147.584a9.728 9.728 0 0 0-0.128-1.472 108.672 108.672 0 0 1-7.104-37.696c0-39.424 21.312-73.664 52.8-92.48 1.6-1.216 3.584-2.176 5.376-3.136 11.84-6.208 25.024-10.176 38.848-11.584a198.72 198.72 0 0 1 64.192 1.664c3.008 0.576 5.952 1.536 8.96 2.176 7.04 1.472 13.952 3.2 20.608 5.888 14.4 4.8 27.136 11.008 38.208 18.048 13.12 6.912 58.88 30.784 112.832 51.264a399.872 399.872 0 0 0 61.376-212.928A402.112 402.112 0 0 0 500.928 32.512zM609.92 458.88H526.144v104.96a23.04 23.04 0 0 1-45.952 0V458.944H396.544a23.04 23.04 0 0 1 0-45.952h83.648v-58.88H396.544a22.976 22.976 0 1 1 0-46.016h70.72L402.816 224.064a23.04 23.04 0 0 1 4.224-32.192 23.04 23.04 0 0 1 32.256 4.288l63.872 83.2 63.872-83.264a23.168 23.168 0 0 1 32.192-4.352 22.976 22.976 0 0 1 4.16 32.256L538.88 308.032h70.848a22.976 22.976 0 1 1 0 45.952H526.08v58.88h83.84a23.04 23.04 0 0 1 0 46.016z" p-id="16021"></path></svg>