<?xml version="1.0" standalone="no"?><!DOCTYPE svg PUBLIC "-//W3C//DTD SVG 1.1//EN" "http://www.w3.org/Graphics/SVG/1.1/DTD/svg11.dtd"><svg t="1572598783254" class="icon" viewBox="0 0 1028 1024" version="1.1" xmlns="http://www.w3.org/2000/svg" p-id="6360" xmlns:xlink="http://www.w3.org/1999/xlink" width="200.78125" height="200"><defs><style type="text/css"></style></defs><path d="M814.313 294.224 218.039 294.224c-11.755 0-21.272 9.835-21.272 21.91 0 12.075 9.517 21.85 21.272 21.85l596.273 0c11.76 0 21.27-9.837 21.27-21.85C835.583 304.124 826.073 294.224 814.313 294.224L814.313 294.224zM835.583 183.387 196.767 183.387c-11.817 0-21.34 9.775-21.34 21.847 0 12.075 9.522 21.78 21.34 21.78l638.816 0c11.825 0 21.345-9.705 21.345-21.845C856.928 193.162 847.408 183.387 835.583 183.387L835.583 183.387zM1015.987 449.424l-84-352.087c-0.19-0.765-0.38-1.4-0.695-2.172-13.23-34.557-32.525-57.555-83.825-57.555l-663.991 1.85c-42.542 0-67.52 17.182-83.615 57.235-0.32 0.902-0.643 1.795-0.833 2.62L15.722 458.049c-6.447 6.325-10.602 14.307-10.602 23.57l0 464.329c0 24.025 28.045 47.27 51.427 47.27l937.02 0c23.38 0 33.675-23.245 33.675-47.27L1027.242 481.619C1027.242 467.629 1023.597 456.386 1015.987 449.424L1015.987 449.424zM771.713 804.158 260.647 804.158l0-161.1 511.066 0L771.713 804.158 771.713 804.158zM707.828 479.986c0 0-45.17 0.578-67.465 0.578L402.659 480.564c-22.295 0-78.127-0.578-78.127-0.578L49.955 479.986l89.83-367.954c8.69-21.275 16.93-28.812 43.76-28.812l664.053-1.915c29.52 0 35.46 7.535 43.7 28.75l91.11 369.932L707.828 479.987 707.828 479.986z" p-id="6361"></path></svg>