<?xml version="1.0" standalone="no"?><!DOCTYPE svg PUBLIC "-//W3C//DTD SVG 1.1//EN" "http://www.w3.org/Graphics/SVG/1.1/DTD/svg11.dtd"><svg t="1573178919198" class="icon" viewBox="0 0 1024 1024" version="1.1" xmlns="http://www.w3.org/2000/svg" p-id="19403" xmlns:xlink="http://www.w3.org/1999/xlink" width="260" height="260"><defs><style type="text/css"></style></defs><path d="M878.229333 924.437333A14.229333 14.229333 0 0 1 864 938.666667H152.896A14.229333 14.229333 0 0 1 138.666667 924.437333V640c0-7.850667 6.378667-14.229333 14.229333-14.229333H864c7.850667 0 14.229333 6.378667 14.229333 14.229333v284.437333zM237.482667 411.84h48.661333c23.125333 0 41.898667 19.242667 41.898667 42.965333 0 23.722667-18.773333 42.965333-41.898667 42.965334H237.482667c-23.146667 0-41.92-19.242667-41.92-42.965334 0-23.722667 18.773333-42.965333 41.92-42.965333z m0-255.402667h48.661333c23.125333 0 41.898667 19.264 41.898667 42.986667s-18.773333 42.944-41.898667 42.944H237.482667c-23.146667 0-41.92-19.221333-41.92-42.944 0-23.722667 18.773333-42.986667 41.92-42.986667z m179.221333 255.402667h362.709333c23.146667 0 41.92 19.242667 41.92 42.965333 0 23.722667-18.773333 42.965333-41.92 42.965334H416.704c-23.125333 0-41.898667-19.242667-41.898667-42.965334 0-23.722667 18.773333-42.965333 41.898667-42.965333z m0-255.402667h362.709333c23.146667 0 41.92 19.264 41.92 42.986667s-18.773333 42.944-41.92 42.944H416.704c-23.125333 0-41.898667-19.221333-41.898667-42.944 0-23.722667 18.773333-42.986667 41.898667-42.986667zM906.666667 0H110.229333A56.917333 56.917333 0 0 0 53.333333 56.896v910.208A56.917333 56.917333 0 0 0 110.229333 1024H906.666667a56.917333 56.917333 0 0 0 56.896-56.896V56.896A56.917333 56.917333 0 0 0 906.666667 0zM286.144 724.757333c23.125333 0 41.92 19.221333 41.92 42.944 0 23.722667-18.794667 42.986667-41.92 42.986667H237.44c-23.125333 0-41.92-19.264-41.92-42.986667s18.794667-42.944 41.92-42.944h48.682667z m493.269333 0c23.125333 0 41.941333 19.221333 41.941334 42.944 0 23.722667-18.816 42.986667-41.941334 42.986667H416.725333c-23.125333 0-41.92-19.264-41.92-42.986667s18.773333-42.944 41.92-42.944h362.688z" p-id="19404"></path></svg>