<?xml version="1.0" standalone="no"?><!DOCTYPE svg PUBLIC "-//W3C//DTD SVG 1.1//EN" "http://www.w3.org/Graphics/SVG/1.1/DTD/svg11.dtd"><svg t="1573176271176" class="icon" viewBox="0 0 1024 1024" version="1.1" xmlns="http://www.w3.org/2000/svg" p-id="4140" xmlns:xlink="http://www.w3.org/1999/xlink" width="200" height="200"><defs><style type="text/css"></style></defs><path d="M357.158039 238.880249a178.229968 178.229968 0 1 0-306.553684 123.254022 465.528117 465.528117 0 0 0-12.837022 109.207715 470.644322 470.644322 0 0 0 223.252569 400.691851l35.766922-146.137411a331.576576 331.576576 0 0 1-119.068037-254.55444A352.087906 352.087906 0 0 1 182.137327 416.738129a177.950902 177.950902 0 0 0 175.020712-177.85788zM509.993027 139.532856a334.878854 334.878854 0 0 1 168.927777 45.766776 180.927603 180.927603 0 0 0-12.046336 64.278136 178.043924 178.043924 0 1 0 112.603014-165.020857 474.411709 474.411709 0 0 0-460.970044-44.185405L400.273692 158.137236a324.367378 324.367378 0 0 1 109.812357-18.883446z m332.27424 347.297277a331.064955 331.064955 0 0 1-177.020683 278.647113 177.625325 177.625325 0 1 0 5.627826 149.765265 472.272205 472.272205 0 0 0 311.623377-443.66797q0-15.62768-1.209285-31.301871l-139.160768 46.510952z" p-id="4141"></path></svg>