<?xml version="1.0" standalone="no"?><!DOCTYPE svg PUBLIC "-//W3C//DTD SVG 1.1//EN" "http://www.w3.org/Graphics/SVG/1.1/DTD/svg11.dtd"><svg t="1573177937382" class="icon" viewBox="0 0 1024 1024" version="1.1" xmlns="http://www.w3.org/2000/svg" p-id="6315" xmlns:xlink="http://www.w3.org/1999/xlink" width="260" height="260"><defs><style type="text/css"></style></defs><path d="M102.4 204.8h819.2V102.4H102.4v102.4z m0 614.4v102.4h819.2v-102.4H102.4zM51.2 0h921.6a51.2 51.2 0 0 1 51.2 51.2v921.6a51.2 51.2 0 0 1-51.2 51.2H51.2a51.2 51.2 0 0 1-51.2-51.2V51.2a51.2 51.2 0 0 1 51.2-51.2z m193.024 696.7296l120.0128-156.6208 163.584 161.8944a51.2 51.2 0 0 0 75.264-3.4816L860.16 391.9872a51.2 51.2 0 0 0-78.4384-65.8432l-221.3888 263.936-165.376-163.6352a51.2 51.2 0 0 0-76.6464 5.2736l-155.3408 202.752a51.2 51.2 0 0 0 81.3056 62.2592z" p-id="6316"></path></svg>